<?xml version="1.0" encoding="UTF-8"?>
<svg id="_레이어_1" data-name="레이어 1" xmlns="http://www.w3.org/2000/svg" viewBox="0 0 502.55 768">
  <defs>
    <style>
      .cls-1 {
        fill: #fff;
      }

      .cls-1, .cls-2 {
        stroke-width: 0px;
      }

      .cls-2 {
        fill-rule: evenodd;
      }
    </style>
  </defs>
  <rect class="cls-1" width="502.55" height="768"/>
  <g>
    <path class="cls-2" d="m432.66,668.66c-43.15-.16-82.22-.52-102.23-1.1-9.18-.26-17.95-.52-26.37-.79v4.71c35.86.85,78.12,1.35,128.7,1.55-.03-1.47-.06-2.93-.09-4.38Z"/>
    <path class="cls-2" d="m66.6,690.45c2.24.02,4.52.03,6.86.03,30.82.11,41.03-.22,46.48-1.4,10.27-2.26,13.84-5.06,12.3-9.59-1.68-4.85-10.97-7.32-38.16-9.91-20.06-1.94-30.05-4.09-32.36-6.79-2.45-2.91.84-8.19,9.3-14.76,9.51-7.32,17.54-9.91,29.01-9.48l8.04.32.42,6.46c.49,7.75,1.47,11.85,3.35,13.36,3.08,2.58,23.06.43,27.05-2.91,4.54-3.77,1.82-9.15-7.06-14.11-3.28-1.83-12.79-5.49-14.12-5.49-.7,0-2.45-.54-3.84-1.18l-2.66-1.08v-55.14c0-47.61.77-91.44,1.82-99.63.35-2.69,2.1-3.02,7.76-1.4,3.42.97,10.69,2.37,23.97,4.42,19.71,3.12,26.49,5.71,30.96,11.74,3.42,4.63,5.1,10.88,6.08,22.51.84,9.91.42,21.76-1.4,41.14-.35,3.88-.98,11.31-1.4,16.69-.49,5.28-1.12,12.92-1.47,16.91-.91,10.45-.7,31.66.35,38.77,2.59,16.69,9.99,27.68,20.9,31.02,3.91,1.18,5.52,1.29,9.09.11,13.56-4.31,21.39-22.51,14.54-33.93-1.96-3.34-8.25-8.19-10.62-8.19-2.03,0-2.24-2.15-1.12-9.91,2.38-15.4,2.8-23.37,2.8-49.87,0-24.99-.42-34.25-2.38-49.54-3.98-31.34-10.69-48.57-24.11-62.04-19.71-19.82-52.98-28.86-64.65-17.56-2.73,2.58-5.73,7.65-7.27,12.28-1.26,3.77-3.84,18.53-3.84,21.97,0,6.25-1.19,7-6.57,4.85-1.54-.65-4.12-1.62-5.66-2.26-11.74-4.63-16.7-14.32-20.06-39.1-.35-3.02-.98-7.54-1.33-10.23-1.68-12.06-2.94-25.2-4.82-49.44-.91-11.85-.91-39.31,0-46.64,1.47-11.42,3.42-19.06,6.15-23.8,1.75-3.02,1.96-2.26,1.68,5.28-.56,12.6,2.38,25.85,8.88,40.71,8.6,19.6,20.06,33.39,33.27,39.96,5.03,2.58,15.73,4.85,22.3,4.85,7.41,0,25.51-3.45,32.08-5.92,1.47-.65,2.8-.11,5.24,1.94,6.08,5.06,19.78,12.71,39.98,22.29,4.05,1.94,8.11,3.88,9.09,4.31.98.54,4.12,2.05,6.99,3.34,2.87,1.29,6.5,2.91,8.04,3.66s4.05,1.94,5.66,2.58l2.87,1.18.84,9.37c.49,5.28,1.54,12.82,2.31,16.8,1.68,8.4,4.12,12.28,9.92,15.72,1.96,1.08,6.22,3.66,9.51,5.6,18.31,10.77,26.84,21.43,30.61,38.13,3.77,16.59,3.08,40.71-4.12,138.4-1.75,23.91-1.68,26.39.28,25.2.63-.32,1.26-4.09,1.82-11.52.49-6.03,1.12-14.65,1.47-19.06.35-4.42.98-13.14,1.4-19.39.42-6.25,1.05-15.4,1.4-20.46s.98-15.19,1.4-22.62c.42-7.43,1.12-17.88,1.47-23.37,1.75-26.82-.21-47.71-5.73-60.1-6.01-13.46-15.17-22.08-35.93-33.82-4.33-2.48-7.9-5.92-9.02-8.72-2.38-6.35-4.82-25.96-3.35-27.36.35-.32,2.38,0,4.4.86,17.05,6.46,35.37,9.26,89.74,13.57,40.26,3.23,70.38-.43,77.23-9.26,2.52-3.34,2.87-8.72.77-13.14-4.12-9.05-7.41-24.02-9.09-41.68-2.38-24.45-3.42-55.79-4.26-125.48-.77-61.61-1.05-66.24-4.12-71.84-3.56-6.46-16.42-10.12-28.17-7.97-11.95,2.26-19.08,5.92-26.42,13.46-9.85,10.23-16.91,26.28-19.22,43.94-.77,5.92-2.45,2.15-2.45-5.49,0-7.65-4.68-15.72-10.62-18.53-11.32-5.49-35.92-7.32-64.51-4.85-25.16,2.26-28.73,2.69-46.13,7-5.8,1.4-15.17,6.25-18.87,9.91-1.68,1.62-3.98,5.06-5.03,7.65-1.96,4.63-1.96,4.74-1.82,21.22.14,23.69,2.24,35.54,7.34,42.65,6.08,8.51,10.48,9.37,54.38,10.88,26.77.86,55.08-1.29,65.7-5.17,6.99-2.48,13.42-7.22,16.15-11.85.63-1.08,1.47-1.94,1.89-1.94,2.1,0,1.54,45.67-.7,55.47-3.15,14.22-8.39,20.14-22.23,25.1-2.94,1.08-6.01,1.94-16.08,4.52-25.51,6.57-32.64,10.12-37.67,18.96-3.15,5.6-4.26,11.74-4.26,24.13,0,10.34-.21,10.77-3.63,8.72-.91-.54-3.98-2.05-6.85-3.34-2.87-1.29-6.01-2.69-6.99-3.12-.98-.54-2.87-1.4-4.19-2.05-27.82-12.92-48.23-23.91-48.23-26.06,0-.86.7-1.29,8.04-4.31,22.72-9.26,37.39-19.49,37.39-25.85,0-2.58-2.94-6.14-6.22-7.54-9.58-4.2-25.44-5.6-33.06-2.8-8.88,3.34-15.87,10.45-18.8,19.17-1.75,5.39-1.68,8.4.49,13.25.98,2.26,1.47,4.52,1.19,4.95-2.87,4.42-39.07,6.57-47.04,2.8-2.1-.97-4.61-2.05-5.59-2.48-2.87-1.29-10.55-7.86-14.33-12.28-10.69-12.39-19.64-31.56-22.79-48.9-1.54-8.83-1.61-12.39-.42-18.53,1.75-8.83,2.45-9.59,8.6-9.48,4.54.11,6.22.54,9.51,3.12,5.87,4.42,11.25,13.68,17.75,30.7,6.36,16.8,11.53,25.63,16.15,27.68,4.68,2.15,14.82,1.72,21.04-.86,5.03-2.05,11.46-6.46,15.52-10.55.98-.97,3.84-3.45,6.5-5.49,6.99-5.6,18.73-19.6,21.18-25.2,1.26-3.12.63-6.03-1.47-6.03-1.54,0-8.53,6.46-11.18,10.45-.77,1.08-4.54,6.25-8.39,11.42-7.34,9.91-9.79,11.74-15.73,11.74-12.65-.11-28.45-22.73-39.07-56.22-4.47-14.11-4.47-15.4-.63-17.23,14.54-6.68,21.32-13.68,24.88-25.63,1.54-5.39,1.75-7.54,1.68-16.91,0-8.19-.35-12.17-1.47-16.59-4.33-17.66-12.86-31.02-22.58-35.65-5.1-2.37-11.6,2.91-14.61,11.96-1.68,5.06-3.42,17.66-3.42,24.56,0,8.08,1.89,25.42,4.26,38.88,3.42,19.82,3.84,17.34-3.7,20.89-8.04,3.88-17.12,10.99-21.11,16.8-1.68,2.48-4.54,5.92-6.43,7.75-6.08,5.92-8.74,12.49-11.18,27.79-1.12,7.22-1.33,44.27-.28,56.76,2.59,30.7,3.49,39.1,6.08,56.11,3.49,23.26,6.92,32.31,14.82,38.34,3.22,2.58,14.05,7.11,16.84,7.11.77,0,1.61.75,1.89,1.83.21.97.07,9.59-.42,19.17-.49,10.12-.98,42.97-1.05,77.65l-.21,60.21-9.37.22c-11.25.22-19.08,2.8-27.68,9.05-10.41,7.65-14.96,15.19-12.86,21.33,1.75,4.85,10.83,7.65,31.87,9.8,23.69,2.37,36.13,4.52,37.67,6.57,1.12,1.51-2.52,2.91-10.76,4.31-5.72.92-28.46,1.31-50.2,1.19v4.49Zm52.71-431.54c-.49-.32-1.12-1.72-1.33-3.12s-.7-4.31-1.12-6.57c-3.77-20.36-4.54-27.36-4.54-43.84-.07-15.29,0-15.72,2.03-22.08,1.12-3.45,2.94-7.32,3.91-8.4,1.82-2.05,6.43-3.34,8.32-2.26,8.53,4.74,16.42,18.31,19.71,33.6,1.75,8.29,1.68,21.11-.21,27.9-1.75,6.46-5.59,12.6-9.79,15.94-4.47,3.55-15.94,9.48-16.98,8.83Zm-27.47,23.37c-.28-1.4,12.72-11.42,17.26-13.36,1.75-.65,3.84-1.72,4.75-2.26.91-.54,1.82-.97,2.1-.97.77,0,2.24,2.37,2.24,3.55,0,2.48,7.55,24.77,11.39,33.6,4.96,11.42,13.14,24.45,18.87,30.05,2.24,2.15,6.36,5.06,9.09,6.46,3.84,2.05,4.68,2.8,3.63,3.34-4.05,2.15-5.17,2.69-8.6,3.66-4.89,1.51-9.65,1.51-14.26-.11-2.87-1.08-4.4-2.37-6.85-6.25-2.52-3.99-9.23-19.49-10.41-24.23-.91-3.45-6.43-14.76-9.65-19.6-4.4-6.68-8.67-10.02-14.82-11.63-2.52-.65-4.61-1.72-4.75-2.26Zm244.42-26.5c0,10.99-.14,12.49-1.68,16.26-4.26,10.23-10.48,14.43-27.68,18.53-7.34,1.62-56.12,2.48-77.58,1.18-19.36-1.18-24.32-2.48-28.52-7.43-4.75-5.49-7.06-18.53-7.13-39.74,0-16.48.56-19.17,5.45-24.66,6.85-7.65,17.47-11.2,46.27-15.62,7.34-1.18,51.51-2.26,60.11-1.51,6.92.54,16.08,2.58,19.5,4.31,4.47,2.26,6.71,4.52,8.11,8.29,1.54,4.09,3.08,23.59,3.15,40.39Zm-78.49,161.77l.35-11.09c.77-26.06,4.68-29.51,45.29-39.53,32.92-8.08,37.81-18.09,36.83-75.18-.42-26.6.49-46.31,3.08-63.87,3.91-26.6,15.38-44.16,33.48-51.16,4.61-1.83,21.46-2.8,25.93-1.62,1.82.54,4.4,1.83,5.73,2.8,5.38,3.88,6.08,9.15,6.08,44.37.07,47.5,2.17,123.86,4.12,146.8,1.96,23.05,5.1,38.67,10.27,50.73,1.54,3.66.98,5.82-1.96,7.75-5.94,4.09-12.65,5.82-28.31,7.22-19.92,1.83-70.24-1.29-104.35-6.57-15.03-2.26-28.8-6.03-34.53-9.48l-2.03-1.18Zm-82.96-51.48c0-8.62,9.23-18.85,19.43-21.54,2.8-.65,7.2-1.18,9.79-1.18,7.97.32,19.71,3.55,22.51,6.35.91.86.91,1.18-.07,2.69-3.42,5.28-27.89,18.2-44.87,23.69-2.66.86-6.78-5.17-6.78-10.02Zm-60.11,94.56c2.59-19.28,6.22-26.5,15.03-30.05,6.85-2.8,21.39,0,35.65,7,26.14,12.71,38.72,34.79,42.91,75.29.42,4.09,1.05,10.77,1.47,14.65.91,9.26.91,52.77,0,62.68-1.12,11.31-2.1,19.06-3.01,23.05l-.77,3.55h-6.36c-5.03,0-6.71.43-8.6,2.15-6.99,6.57,3.49,19.49,11.04,13.46,1.12-.86,2.87-3.34,3.91-5.39,2.17-4.52,4.19-4.85,9.16-1.51,4.89,3.23,6.5,5.92,6.5,10.99,0,6.46-3.01,12.39-8.74,17.23-2.31,1.94-3.91,2.26-9.44,2.26-7.76,0-11.74-2.26-16.42-9.59-3.56-5.39-4.96-10.02-6.36-20.68-1.4-10.45-.98-24.34,1.82-56.33.35-4.42,1.12-12.71,1.61-18.31.42-5.6.84-16.59.84-24.23-.07-23.59-2.94-34.14-11.18-40.28-6.01-4.52-10.69-6.03-25.86-8.62-14.33-2.48-19.85-3.45-25.51-4.52-3.28-.65-6.43-1.29-6.99-1.29-1.47-.32-1.68-4.42-.7-11.52Zm87.23,166.08c-2.31,3.02-4.61,3.55-7.27,1.62-2.66-2.05-3.08-4.42-1.05-6.14.77-.54,3.28-1.08,5.59-1.08,4.75,0,5.59,1.72,2.73,5.6Zm-89.67,13.25c2.45-.75,19.43,5.92,23.48,9.15,1.05.97,1.26,1.62.7,2.48-.84,1.29-12.65,3.88-18.38,3.99-3.56,0-4.12-.32-5.24-2.8-.63-1.62-1.19-5.06-1.19-7.75-.07-2.69.21-4.95.63-5.06Z"/>
  </g>
</svg>