<?xml version="1.0" encoding="UTF-8"?>
<svg id="_레이어_1" data-name="레이어 1" xmlns="http://www.w3.org/2000/svg" viewBox="0 0 695.82 768">
  <defs>
    <style>
      .cls-1 {
        fill-rule: evenodd;
      }

      .cls-1, .cls-2, .cls-3 {
        stroke-width: 0px;
      }

      .cls-1, .cls-3 {
        fill: #fff;
      }
    </style>
  </defs>
  <rect class="cls-3" width="500" height="768"/>
  <path class="cls-2" d="m500,742.17c-107.38-1.22-167.72-2.87-205-5.17-16.49-1.03-30.85-2.58-30.85-3.35,0-.34.77-1.46,1.64-2.58,2.02-2.66,2.02-8.33,0-11.85-3.57-6.01-13.79-12.63-23.14-14.86-3.76-.94-5.3-.94-8.48,0-5.4,1.63-7.62,4.72-7.62,10.48,0,7.64,5.59,13.74,17.36,19.15l3.37,1.55-3.86,1.29c-2.7.86-8.2,1.29-18.32,1.29-12.15.09-15.81-.26-23.14-1.89-40.88-9.36-71.35-42.6-80.7-88.12-1.83-9.02-1.45-42.26.58-54.11,2.89-16.75,7.23-33.32,11.38-43.37,1.06-2.58,2.12-5.5,2.51-6.44.29-.94,2.6-5.41,5.11-9.88,6.75-11.85,14.56-18.55,19.09-16.32,3.86,1.8,5.69,6.36,8.77,21.04,1.06,5.15,2.41,11.17,2.89,13.31.39,2.15,1.35,6.36,1.93,9.45.58,3.09,1.45,7.13,1.93,9.02.48,1.89,1.35,5.33,1.93,7.73,1.16,4.72,10.61,38.39,13.5,48.1,1.74,5.93,3.57,11.77,6.46,21.04,2.12,6.96,2.8,9.28,4.63,15.03,7.13,23.28,12.34,38.65,14.27,42.26,1.16,2.15,3.76,2.58,5.3.86,1.54-1.63,3.95-10.05,5.5-19.41,1.74-9.62,2.02-50.25.48-64.93-.48-5.24-1.45-14.26-1.93-20.18-1.54-15.8-3.57-33.84-7.81-66.56-.48-4.29-1.35-11.25-1.93-15.46-.48-4.29-1.35-10.65-1.83-14.17-.48-3.52-1.35-10.13-1.93-14.6-3.66-29.03-4.72-34.96-6.65-38.39-.87-1.46-4.92-5.84-9.06-9.71-8.29-7.64-12.44-14.26-14.75-23.36-.77-3.35-1.64-16.49-2.31-34.18-1.06-28.86-2.31-47.07-3.95-55.74-1.16-6.01-1.16-11.85,0-10.74,3.18,3.09,17.64,29.29,20.83,37.71,4.82,12.71,7.13,31.35,7.23,56.34,0,17.86.67,22.5,3.66,24.56,2.6,1.89,5.3,1.29,16.29-3.61,9.16-4.12,10.99-5.24,12.34-7.9,3.76-7.13,2.7-16.06-4.53-37.62-3.66-10.91-7.71-20.79-12.25-29.8-1.16-2.23-2.02-4.29-2.02-4.47s-1.93-3.95-4.24-8.42c-2.31-4.38-5.11-9.96-6.36-12.28-1.16-2.4-4.34-8.25-6.94-13.14-10.51-19.93-13.98-30.15-11.47-34.36,1.54-2.66,4.53-3.09,7.62-1.29,8.97,5.41,18.99,6.7,33.94,4.12,18.13-3.01,27.29-6.79,35.48-14.52,8.2-7.64,10.99-16.4,12.63-39.17,1.74-22.59-.48-30.49-11.67-41.23-10.22-9.88-11.57-12.88-11.76-25.59-.1-6.01-.48-7.3-2.22-8.93-3.28-2.92-6.56-1.12-8.39,4.55-2.8,8.42-1.35,16.06,5.79,29.2,2.51,4.72,4.44,8.67,4.15,8.85-.19.17-3.37.94-7.13,1.72-12.15,2.66-11.67,2.66-12.82-.09-3.95-8.93-9.64-32.47-8.48-35.04.29-.69,1.64-1.29,2.99-1.29,7.81,0,14.85-8.16,16.49-18.98.67-4.72-.29-3.95,13.88-11.68,10.7-5.84,19.48-10.65,27.29-15.03,15.91-8.85,22.66-12.63,29.99-16.66,18.32-10.13,57.56-33.67,63.93-38.31,8-5.75,12.82-11.51,12.82-15.03,0-3.01-2.99-7.56-5.88-8.93-5.11-2.4-17.55,1.03-30.76,8.5-9.06,5.15-26.23,15.29-32.2,19.07-4.44,2.83-24.68,14.43-36.74,21.04-1.83,1.03-2.22.52-5.98-6.53-3.47-6.27-5.69-8.93-13.02-15.63-8.87-7.99-11.18-9.79-22.47-17.35-8.58-5.75-20.44-10.74-25.65-10.74-2.41,0-4.82.43-5.5,1.03-2.22,1.98-1.25,7.39,2.8,15.03,7.23,13.57,5.59,20.53-8.68,37.45-21.31,25.25-59.2,62.36-67.78,66.31-3.47,1.55-3.66,1.55-5.5.09-1.06-.86-3.28-4.55-4.92-8.16-4.72-10.13-10.41-20.01-13.31-22.85-3.37-3.35-10.7-6.44-15.33-6.44-3.66,0-9.45,1.55-15.72,4.12-3.95,1.55-24.3,13.74-28.35,16.92-3.28,2.49-4.92,2.83-3.57.6,1.54-2.66,22.47-20.18,28.06-23.53,4.92-2.92,5.59-3.18,9.16-2.49,2.12.43,6.46,1.29,9.64,1.8,6.65,1.2,12.63,3.95,17.26,8.07,4.63,4.21,6.65,4.98,8.87,3.52,1.54-.94,1.83-2.23,1.64-8.07-.1-5.84-.58-7.64-2.7-10.91-3.57-5.5-7.23-7.21-14.94-7.21-6.85,0-11.67,1.29-20.05,5.15-5.88,2.66-5.59,2.66-16.29-.09-10.9-2.66-16.01-3.35-19.67-2.49-7.42,1.8-11.09,6.1-18.61,21.64-3.86,8.07-5.21,9.96-10.03,14.43-5.79,5.33-6.94,7.3-6.94,11.85,0,4.29,2.12,6.79,6.75,7.9,4.34,1.03,4.44,1.2,2.31,5.67-3.28,6.87-4.44,13.31-3.18,17.95,2.02,7.73,6.07,12.45,10.8,12.45,3.66,0,5.11-1.46,8.48-8.76,3.86-8.42,6.94-11.25,8.29-7.82,1.06,2.92,6.56,7.3,11.67,9.36,11.47,4.72,19.77,1.03,15.72-7.04-3.37-6.44-11.76-11.51-19.38-11.51-4.63,0-4.82-.69-1.06-6.44,8.58-13.06,31.53-31.01,40.98-31.95,3.37-.34,4.53-.09,7.13,1.89,7.52,5.67,18.61,24.39,25.17,42.6.58,1.63,1.06,5.58,1.06,8.67,0,4.81-.39,6.1-2.31,8.16-3.95,4.21-8,4.72-33.46,4.38-26.42-.34-25.74-.52-28.44,7.9-.87,2.66-2.51,5.84-3.57,7.04-1.16,1.12-7.52,5.33-14.17,9.28-21.12,12.54-26.03,17.18-26.03,24.39,0,6.1,2.99,10.91,19.38,31.69,3.95,4.98,3.95,5.07,1.93,6.27-4.82,3.01-1.74,9.19,13.4,27.4,12.63,15.12,12.34,14.6,13.98,22.85,2.12,10.56,1.93,21.99-.39,25.25-2.31,3.26-12.05,13.66-21.98,23.45-20.73,20.27-26.61,28.34-29.31,40.28-1.54,6.53-.19,12.45,4.15,18.04,5.69,7.39,13.11,6.7,21.89-2.06,9.64-9.62,23.33-38.48,27.96-59.09.58-2.4,1.45-6.1,2.02-8.33.48-2.23.96-5.58.96-7.47s1.35-6.27,2.89-9.79c4.53-10.22,3.47-18.04-3.86-28.34-1.54-2.23-2.89-4.64-2.89-5.24,0-1.89-7.52-17.69-11.57-24.31-4.24-6.87-4.34-8.5-.19-6.96,1.54.52,9.06,1.03,18.03,1.03,14.08.09,16.01-.09,21.98-2.06,8.48-2.66,13.21-6.36,17.16-13.31,4.05-7.3,5.69-8.5,9.83-7.82,4.05.69,14.56,6.61,18.32,10.31,1.54,1.46,3.86,4.81,5.3,7.39,2.51,4.55,2.51,5.24,2.51,20.18,0,8.5-.58,19.33-1.16,24.05-3.76,27.83-4.72,34.27-9.83,67.42-1.25,7.9-2.7,17.26-3.86,25.77-3.76,25.51-5.3,31.09-10.32,35.39-3.09,2.66-3.66,2.83-9.74,2.75-7.14-.17-8.97-.6-28.73-7.56-7.62-2.66-15.23-4.81-17.16-4.81-6.65,0-6.36-3.35-6.36,74.9,0,97.31,2.41,141.8,8.87,164.56.96,3.44.87,3.95-1.83,7.3-4.63,5.93-5.59,8.93-5.5,17.78,0,7.39.29,8.67,3.09,13.4,3.86,6.79,14.37,19.24,16.2,19.24,2.7,0,2.6-2.66-.29-5.84-10.22-11.51-14.75-19.75-14.75-27.23,0-5.24,3.37-14.43,5.11-13.91.67.17,1.74,1.8,2.41,3.69,4.34,11.77,13.79,22.59,21.31,24.39,6.17,1.46,11.09.43,14.56-3.09,2.51-2.58,2.89-3.69,2.89-7.73,0-6.18-3.09-11.68-10.51-18.38-7.71-6.96-14.66-9.88-22.18-9.19l-5.5.52-1.16-5.33c-5.01-24.99-6.56-46.98-8-117.84-1.06-55.31-.87-108.05.48-110.54,1.16-2.15,2.6-2.32,7.33-.94,4.53,1.29,5.3,1.55,12.53,4.38,10.03,3.87,22.37,7.04,27.86,7.04,4.15,0,9.26-1.63,12.25-4.04,5.69-4.47,8-11.25,10.99-32.04.58-4.04,1.45-10.13,1.93-13.57.58-3.35,1.35-9.02,1.93-12.45,1.16-8.16,2.8-18.64,3.86-25.08.48-2.83,1.35-8.67,1.93-12.88.58-4.29,1.45-10.05,1.93-12.88.48-2.83,1.25-9.02,1.83-13.74.58-4.72,1.45-12.11,2.02-16.4,1.25-10.13,1.25-27.4-.1-31.52-1.06-3.52-.58-6.53.58-3.61.39.94.96,2.49,1.45,3.44,2.99,6.61,3.95,10.13,4.82,17.86.58,4.81,1.35,12.02,1.93,16.06,2.12,16.92,3.86,42.86,3.86,59.26.1,33.07,3.18,42.77,18.32,57.12,10.7,10.13,9.55,6.27,15.52,53.25,1.06,8.59,2.41,18.81,3.76,29.2,2.31,17.78,4.44,35.3,5.79,47.24.58,5.15,1.45,12.88,1.93,17.18,2.51,21.82,4.82,54.2,4.82,65.71-.1,7.99-2.12,28.77-3.66,35.64-1.16,5.5-3.18,4.29-5.21-3.01-1.06-3.52-2.22-7.73-2.8-9.28-.48-1.46-1.35-4.21-1.93-6.01-.48-1.72-1.35-4.38-1.83-5.75-.39-1.46-1.54-4.9-2.41-7.73-.87-2.83-2.31-7.64-3.37-10.74s-2.51-7.9-3.37-10.74c-3.76-12.45-10.9-36.59-12.05-40.8-.48-1.63-1.06-3.78-1.35-4.72-1.16-3.95-4.44-16.66-5.4-21.04-.58-2.58-1.45-6.27-1.93-8.16-.48-1.89-1.35-5.93-1.93-9.02-.58-3.09-1.45-7.3-1.93-9.45-.48-2.15-1.35-6.36-2.02-9.45-3.86-18.55-7.71-24.91-15.04-24.91-10.61,0-24.49,18.38-32.11,42.52-12.25,38.56-14.56,68.8-7.81,102.21,2.51,12.63,10.32,28.6,20.54,42.26,15.62,20.96,37.7,35.47,61.51,40.54,18.22,3.87,36.06,3.44,51.87-1.29,4.44-1.29,6.07-1.37,12.53-.52,25.45,3.35,69.23,5.15,171.82,7.04,15.99.28,37.33.56,63.26.83M97.63,112.33c1.16-.26,4.53-1.12,7.42-1.8,5.3-1.2,5.98-1.2,10.61,0,3.18.77,6.27,4.04,7.62,8.07,1.16,3.44,1.45,7.73.48,7.73-.29,0-2.6-1.46-5.11-3.26-6.07-4.38-11.09-6.36-19.57-7.47-4.05-.6-4.92-2.49-1.45-3.26Zm-73.57,43.63c0-2.4,1.06-4.04,5.69-8.5,4.63-4.55,11.67-15.03,11.67-17.26,0-1.72,6.56-12.45,9.06-14.86,2.51-2.4,3.47-2.75,7.91-2.75,2.8,0,7.42.52,10.22,1.2,2.8.69,6.46,1.63,8,2.23l2.89,1.03-3.86,2.58c-6.36,4.38-29.6,25.59-34.52,31.61-6.56,7.99-8.29,9.45-10.99,9.45-4.15,0-6.07-1.55-6.07-4.72Zm40.5,23.36c6.17,1.03,14.46,10.39,10.41,11.6-3.37,1.03-15.04-4.38-17.16-7.9-2.41-4.04-.58-5.07,6.75-3.69Zm53.32-38.05c-.96-1.03-2.6-2.75-3.66-3.95-5.69-6.18-13.21-7.47-21.6-3.69-2.6,1.12-5.3,2.58-5.98,3.18-.77.6-3.09,2.23-5.21,3.69-4.92,3.26-15.43,12.54-20.44,18.04-4.05,4.55-7.04,9.19-9.06,14.17-.58,1.63-2.8,4.55-4.82,6.44-2.02,1.89-5.21,6.44-7.04,10.13-3.18,6.1-3.66,6.61-5.4,5.75-2.8-1.37-4.82-6.36-4.82-12.11,0-5.33.48-6.79,5.21-15.2,2.8-5.07,3.86-5.93,20.83-17.26,9.83-6.53,19.96-13.14,22.47-14.6,5.21-3.18,15.33-7.39,18.99-8.07,3.86-.69,9.93.34,12.73,2.15,3.18,1.98,7.91,7.9,8.87,10.99l.67,2.15-1.74-1.8Zm-47.15,248.31c-1.74,6.61-6.46,19.75-8.48,23.96-12.15,24.05-18.8,32.29-26.03,32.29-2.7,0-3.66-.6-5.88-3.61-4.53-6.1-3.66-15.63,2.22-25.59,2.22-3.61,10.41-13.74,14.37-17.61,2.02-2.06,15.91-15.8,20.63-20.44,1.83-1.89,3.66-3.87,4.05-4.55,1.16-1.8,2.6-1.46,2.6.6,0,1.72-.48,3.69-3.47,14.94Zm21.31,307.05c3.18,0,5.4.77,9.93,3.44,8.77,5.24,16.58,15.03,16.58,20.79,0,2.49-5.11,6.7-8.29,6.7-8.1,0-18.42-11.08-23.14-24.82-1.64-4.9-.58-6.1,4.92-6.1ZM249.69,181.81c0-.69-.39-1.55-.96-1.8-.48-.26-.96-3.95-.96-8.25,0-4.55.39-7.64.96-7.64s.96,3.18.96,7.73c0,9.71,1.35,12.45,11.38,23.36,7.04,7.56,8.1,9.02,10.7,14.69,1.35,3.09,1.45,28.77,0,36.93-2.31,13.48-5.01,19.58-11.18,24.82-3.57,3.09-13.88,8.42-18.61,9.62-1.35.34-4.82,1.2-7.71,1.98-6.65,1.63-27.29,2.06-29.02.52-1.45-1.29.48-1.72,11.18-2.4,22.47-1.37,36.25-12.37,47.53-37.79,3.76-8.59,5.5-16.15,5.5-24.48,0-9.19-1.16-11.51-6.85-14.6-1.74-1.03-3.47-2.66-3.86-3.69-.39-1.03-2.51-5.5-4.82-9.79-2.31-4.38-4.24-8.5-4.24-9.19Zm-5.3,26.11c.29-.52,2.12-.86,3.95-.86s3.28.34,3.28.86c0,.43-1.74.86-3.95.86s-3.66-.34-3.28-.86Zm-2.31,6.01c5.59,0,11.67-1.55,14.94-3.87,3.18-2.32,4.24-2.06,6.46,1.2,5.11,7.64-2.02,32.47-13.88,48.18-9.93,13.31-21.21,18.04-43.29,18.04h-12.05l-3.47-4.98c-4.05-5.5-7.33-11.94-10.32-19.5-2.12-5.58-5.98-17.01-5.98-17.95,0-1.12,4.34-.34,16.1,2.92q17.36,4.9,25.55,6.1c11.67,1.72,20.92-.94,24.39-6.96,2.12-3.61,1.83-12.37-.48-18.04-1.06-2.58-1.93-4.81-1.93-4.9,0-.17,1.74-.26,3.95-.26Zm-3.18-62.61c-1.54,4.21-5.3,8.93-7.91,10.13-3.37,1.63-6.75.94-7.13-1.55-.48-2.58.58-6.1,1.74-6.1.48,0,3.57-1.55,6.85-3.44,3.37-1.89,6.36-3.18,6.85-2.75.48.43.29,2.06-.39,3.69Zm-9.74-12.02c2.41-1.2,5.3-1.12,7.33.26.87.6,1.64,1.37,1.64,1.63,0,.77-11.28,7.47-12.44,7.47-2.7,0,.19-7.64,3.47-9.36Zm56.21-42.77c20.92-11.34,27.48-15.03,40.5-22.93,38.95-23.79,47.53-28.09,55.44-27.74,3.18.17,4.05.6,5.11,2.49,2.31,4.38-1.25,8.5-15.62,18.29-5.4,3.69-44.74,27.06-45.51,27.06-.29,0-2.31,1.12-4.53,2.49-4.34,2.58-23.24,13.31-30.56,17.26-2.41,1.29-7.91,4.29-12.25,6.79-4.44,2.4-11.57,6.36-15.91,8.76-13.11,7.3-17.16,9.36-18.32,9.36-.67,0-2.12-.86-3.37-1.89-3.09-2.58-11.67-2.75-14.85-.26-2.8,2.23-5.69,8.16-6.56,13.23-.77,5.07-3.09,5.67-4.82,1.37-3.37-8.42-.96-13.91,9.06-20.61,4.53-3.01,24.59-14.09,32.78-18.12,4.44-2.23,19.09-9.88,29.41-15.55Zm-101.53,30.92c15.72-16.15,31.53-34.01,35.58-40.02,3.95-6.01,7.13-14,7.13-17.95s-2.12-9.62-6.17-16.92c-1.93-3.35-3.28-6.61-2.89-7.04.87-1.29,7.42-.26,12.25,1.98,11.96,5.33,33.94,21.82,41.85,31.18,5.11,6.1,8.77,15.03,6.17,15.03-.48,0-4.05-1.89-8.1-4.21-5.69-3.35-7.33-4.81-7.91-6.87-1.06-4.38-9.16-11.51-17.16-15.03-3.86-1.72-8-3.09-9.16-3.09-2.51,0-4.05,2.4-3.09,4.81.87,1.89,11.38,9.88,19.57,14.86,5.59,3.35,6.07,4.29,4.15,7.64-2.8,4.9-11.67,10.99-32.4,22.5-4.53,2.49-13.59,7.73-20.25,11.51-10.99,6.36-17.36,9.53-24.1,11.85-1.35.52-3.18,1.29-4.15,1.72-4.15,1.89-2.22-.77,8.68-11.94Zm68.07-49.47c-.58.17-1.93-.26-2.89-.94-.96-.69-2.8-2.06-4.15-3.01-3.86-2.83-.67-2.06,3.95.94,2.31,1.46,3.66,2.83,3.09,3.01Zm-93.43,80.48c.58-2.32,2.12-4.38,5.79-7.56,5.5-4.72,7.23-5.58,20.34-10.65,7.42-2.83,18.71-8.85,53.99-29.2,10.22-5.93,16.29-10.48,20.34-15.37l3.66-4.55,4.92,2.49c2.6,1.37,4.92,3.01,5.01,3.61.19.69-3.76,3.26-9.64,6.27-40.69,20.87-50.72,27.23-54.09,34.44-2.02,4.21-1.93,6.87.39,12.97,1.06,2.75,1.93,5.33,1.93,5.67,0,.26-1.64,1.46-3.57,2.49-11.57,6.27-16.49,10.99-22.47,21.99-2.7,4.9-5.11,8.85-5.4,8.85s-1.54-1.12-2.89-2.49c-2.6-2.83-9.55-6.1-12.73-6.1-1.54,0-2.22-.69-2.6-2.4-.29-1.29-.96-3.52-1.45-4.9-1.45-4.21-2.22-12.02-1.54-15.55Zm16.39,40.71c-1.83,3.35-4.15,3.52-7.33.6-2.51-2.15-5.3-10.48-4.34-12.71.87-2.06,5.4-.69,9.45,2.92,4.15,3.69,4.53,5.24,2.22,9.19Zm-16.39-9.62c.29.77.58,2.4.58,3.61.1,4.04,3.47,9.53,7.23,11.42,1.83,1.03,3.37,1.98,3.37,2.23,0,1.2-8.48,13.14-14.08,19.75-9.74,11.6-15.04,17.01-27.38,27.83-13.21,11.68-24.39,19.33-34.61,23.71-6.46,2.75-8.29,3.09-15.04,3.18-9.35.09-13.21-1.29-19.86-7.21-5.69-5.07-9.35-11.34-10.12-17.35-.48-3.78-.29-4.9,1.35-6.7l1.93-2.15h38.37l7.23-3.18c11.09-4.9,21.6-14.52,42.23-38.91,7.81-9.19,16.2-17.61,17.55-17.61.39,0,.96.6,1.25,1.37Zm-93.91,121.53c0,1.98-1.93.17-7.33-7.21-7.42-9.96-7.33-9.88-6.65-10.99,1.06-1.46,2.7-.43,5.3,3.61,4.82,7.21,8.68,13.74,8.68,14.6Zm105.29-36.25c-.67,2.75-1.16,6.36-1.16,8.07,0,2.83-1.35,4.81-2.51,3.78-1.93-1.72-4.15-19.33-2.6-20.61,1.35-1.29,4.15-.52,5.79,1.63,1.35,1.98,1.45,2.83.48,7.13Zm2.7,28.86v-9.45c0-5.24.48-10.91,1.06-12.8.58-1.8,1.06-6.01,1.16-9.28q.19-6.01-3.57-8.93c-4.53-3.44-6.27-3.61-9.93-.86-2.51,1.98-2.7,2.49-2.7,8.85,0,3.69.58,8.93,1.35,11.68,1.64,5.84.96,7.13-1.45,2.58-3.95-7.56-18.71-17.18-27.86-18.12-5.69-.52-8.77,1.55-12.15,7.99-4.82,9.28-8.97,12.28-20.15,14.69-6.17,1.29-22.37,1.55-28.25.43-2.22-.43-6.46-1.2-9.45-1.72-4.15-.77-5.69-1.46-6.85-3.35-.87-1.29-5.11-6.79-9.45-12.2-8.58-10.65-11.38-15.03-13.11-19.84-2.31-6.53,2.31-11.17,23.53-23.71,10.9-6.44,14.56-9.1,16.68-12.11,1.54-2.15,2.8-4.64,2.8-5.41,0-2.83,2.22-5.93,4.72-6.53,1.35-.26,7.91-.09,14.56.43,14.94,1.29,20.25,1.29,27.58.09,7.33-1.2,10.9-2.66,14.08-5.67,5.5-5.15,5.5-13.31.1-27.31-1.25-3.35-2.41-6.36-2.51-6.87-.1-.43,1.16-.69,2.89-.6,3.28.34,8.68-1.89,13.31-5.33,1.64-1.2,3.18-2.15,3.66-2.23.39,0,.67,2.06.67,4.47s.96,7.9,2.12,12.02l2.12,7.56-5.79,4.64c-3.18,2.58-7.71,6.96-10.12,9.71-2.31,2.75-4.44,5.15-4.72,5.41-.29.26-3.09,3.52-6.27,7.3-14.66,17.44-26.23,27.66-36.64,32.29-4.53,1.98-5.3,2.06-22.95,1.89-20.05-.26-21.89.09-25.74,4.98-5.01,6.18.67,21.39,11.09,29.8,9.35,7.64,20.05,9.71,32.4,6.1,14.08-4.12,24.78-10.91,43.87-27.83,17.45-15.55,30.47-30.23,40.21-45.26,1.45-2.23,3.37-4.21,4.44-4.55,3.28-.86,5.11-3.61,5.11-7.39-.1-2.75,1.35-6.1,6.07-14.43,6.56-11.77,9.83-15.2,20.25-21.04l5.59-3.26,2.31,2.15c1.83,1.63,2.6,3.69,3.66,9.71,2.51,15.12,3.47,17.95,14.46,46.55,3.76,9.79,3.95,10.99,2.22,14.52-2.6,5.07-5.79,6.44-15.14,6.44-8.39-.09-14.37-1.37-38.18-8.25-9.26-2.66-10.32-2.75-12.44-.6-1.35,1.37-1.54,2.49-1.06,5.41,1.54,8.42,6.65,21.3,13.21,33.07l4.82,8.85-2.99,3.01c-2.41,2.49-2.99,3.78-2.99,7.21,0,3.61,2.31,11.68,4.72,16.83.48.94,1.54,3.09,2.31,4.72,2.51,5.24,5.59,11.34,9.83,19.33,7.33,13.74,12.05,22.93,12.05,23.28,0,.17,1.06,2.4,2.41,4.98,2.8,5.33,3.47,6.87,7.42,16.4,9.93,23.71,14.08,44.75,9.83,50.07-2.22,2.83-19.48,10.13-20.92,8.85-.77-.69-1.35-8.59-1.83-24.39-.87-32.29-2.7-43.72-9.45-59.44-1.35-3.18-11.57-21.39-18.8-33.5l-7.23-12.02Zm80.89,428.67c-8.39-1.46-18.13-7.39-20.92-12.88-2.6-4.9-2.6-5.75-.1-8.59,1.64-1.8,2.8-2.23,6.27-2.23,2.31,0,6.27.86,8.58,1.8,5.59,2.32,13.4,8.59,14.94,11.94,2.31,4.98-2.89,10.99-8.77,9.96Z"/>
  <path class="cls-1" d="m695.79,747.88c.01-1.4.02-2.8.03-4.21"/>
</svg>