<?xml version="1.0" encoding="UTF-8"?>
<svg id="_레이어_1" data-name="레이어_1" xmlns="http://www.w3.org/2000/svg" viewBox="0 0 283.465 131.18">
  <defs>
    <style>
      .cls-1 {
        fill: #040000;
      }
    </style>
  </defs>
  <path d="M80.193,49.663c-7.626-3.858-14.359-4.388-20.014-1.579-14.825,7.365-19.947,35.475-23.336,54.077-.769,4.217-4.092,6.461-8.461,5.714-2.931-.5-4.997-2.378-5.976-5.43-1.007-3.138-.631-6.689-.318-8.527l.01-.047c.586-2.223,1.907-4.144,3.926-5.71.17-.132.229-.338.155-.539-.074-.201-.255-.323-.467-.31l-25.169,1.181c-.233.011-.416.142-.501.359-.086.217-.041.438.123.605,2.145,2.191,3.172,4.983,3.051,8.298l-.003.044c-.058.489-.102.993-.131,1.5v.026c-.367,6.312,1.613,12.551,5.574,17.567,3.99,5.054,9.661,8.43,15.968,9.507,6.829,1.166,13.989-.501,19.649-4.573,5.601-4.03,9.261-9.938,10.303-16.636.419-2.691.912-6.467,1.484-10.84,1.514-11.582,3.587-27.443,6.07-36.407,2.89-10.438,7.724-9.242,15.728-7.261.55.136,1.118.277,1.705.418.506.121.864-.18.994-.534.052-.142.181-.628-.364-.904Z"/>
  <path d="M43.794,64.853c0,1.927-1.563,3.49-3.49,3.49s-3.49-1.562-3.49-3.49,1.562-3.49,3.49-3.49,3.49,1.562,3.49,3.49Z"/>
  <circle cx="37.225" cy="74.634" r="3.49"/>
  <path d="M38.221,84.414c0,1.927-1.562,3.49-3.49,3.49s-3.49-1.562-3.49-3.49,1.562-3.49,3.49-3.49,3.49,1.563,3.49,3.49Z"/>
  <g>
    <path class="cls-1" d="M84.216,35.34c0-4.337.187-8.54.562-12.61.374-4.069.91-7.55,1.606-10.441.267-1.124.494-2.169.683-3.132.187-.964.468-1.834.843-2.61.374-.775.883-1.446,1.526-2.008.643-.562,1.526-.976,2.651-1.245.803-.213,1.727-.362,2.771-.442,1.044-.08,2.101-.12,3.172-.12,5.996,0,10.628,1.192,13.895,3.574,3.266,2.383,4.899,5.743,4.899,10.08,0,3.052-.803,5.971-2.41,8.755-1.606,2.785-3.909,5.248-6.907,7.389,0,.269.321.402.964.402h1.847c.535,0,1.311-.013,2.329-.04,1.017-.026,1.98.068,2.891.281,2.195.482,3.936,1.66,5.221,3.534,1.285,1.875,1.928,4.177,1.928,6.907,0,2.517-.59,4.847-1.767,6.988-1.179,2.142-2.811,3.99-4.899,5.542-2.088,1.553-4.552,2.771-7.389,3.654-2.839.884-5.917,1.326-9.237,1.326-5.355,0-9.224-1.326-11.606-3.976-2.383-2.65-3.574-6.948-3.574-12.891v-8.915ZM100.119,23.051c.321,0,.643-.227.964-.683.321-.454.615-1.044.883-1.767.267-.723.482-1.539.643-2.45.161-.91.241-1.82.241-2.731,0-1.124-.134-2.034-.402-2.731-.268-.695-.616-1.044-1.044-1.044-.321,0-.656.228-1.004.683-.349.456-.656,1.044-.924,1.767-.268.723-.496,1.526-.683,2.41-.188.883-.281,1.754-.281,2.61,0,1.072.161,1.995.482,2.771.321.777.695,1.164,1.124,1.164ZM105.821,50.761c.428-.482.643-1.124.643-1.928v-1.928c0-.749-.134-1.512-.402-2.289-.269-.776-.602-1.512-1.004-2.209-.402-.695-.843-1.258-1.325-1.687-.482-.428-.937-.643-1.365-.643h-.643c-.214.429-.321.991-.321,1.687,0,1.606.334,3.253,1.004,4.94.669,1.687,1.566,3.146,2.691,4.377l.723-.321Z"/>
    <path class="cls-1" d="M150.72,8.032c2.195,0,4.283.335,6.265,1.004,1.98.67,3.735,1.634,5.261,2.891,1.526,1.259,2.731,2.799,3.614,4.618.884,1.821,1.325,3.909,1.325,6.265s-.549,4.552-1.646,6.586c-1.098,2.035-2.53,3.789-4.297,5.261-1.767,1.474-3.762,2.638-5.984,3.494-2.222.857-4.431,1.285-6.626,1.285-.59,0-1.152-.026-1.687-.08-.536-.053-1.098-.133-1.687-.241l-1.044-.803c0,.375-.108.871-.321,1.486-.214.616-.321,1.406-.321,2.37,0,.482.027,1.138.08,1.968.053.831.201,1.62.442,2.369.241.751.575,1.406,1.004,1.968.428.562.99.843,1.687.843,1.231,0,2.45-.482,3.654-1.446,1.205-.964,2.476-2.02,3.815-3.172,1.338-1.151,2.743-2.209,4.217-3.173,1.472-.964,3.065-1.446,4.779-1.446,3.534,0,5.301,1.767,5.301,5.301,0,2.785-.777,5.22-2.329,7.309-1.553,2.088-3.493,3.843-5.823,5.261-2.329,1.419-4.859,2.49-7.59,3.213-2.731.723-5.274,1.084-7.63,1.084-2.731,0-5.369-.576-7.911-1.726-2.544-1.151-4.753-2.717-6.626-4.699-1.339-1.392-2.437-2.744-3.293-4.056-.857-1.311-1.54-2.677-2.048-4.096-.509-1.418-.857-2.904-1.044-4.458-.188-1.553-.281-3.266-.281-5.14,0-3.855.615-7.59,1.847-11.204,1.231-3.614,2.984-6.813,5.261-9.598,2.275-2.783,5.073-5.02,8.393-6.706,3.32-1.687,7.068-2.53,11.245-2.53ZM149.354,28.352c.91,0,1.767-.267,2.57-.803.803-.535,1.512-1.217,2.128-2.048.615-.83,1.097-1.727,1.446-2.691.347-.964.522-1.847.522-2.651,0-1.392-.402-2.502-1.205-3.333-.803-.829-1.901-1.245-3.293-1.245-.857,0-1.365.121-1.526.362s-.402.71-.723,1.405c-.59,1.233-1.138,2.464-1.646,3.695-.51,1.233-.763,2.544-.763,3.936,0,.803.173,1.566.522,2.289.348.723,1.004,1.084,1.968,1.084Z"/>
    <path class="cls-1" d="M180.115,15.421c1.338,0,2.502.456,3.494,1.365.99.911,1.874,2.088,2.65,3.534.776,1.446,1.418,3.052,1.928,4.819.508,1.767.924,3.534,1.245,5.301.321,1.767.548,3.413.683,4.94.133,1.526.201,2.745.201,3.655,0,.75-.054,1.807-.161,3.173-.108,1.365-.281,2.839-.522,4.418-.241,1.58-.562,3.186-.964,4.819-.402,1.634-.911,3.12-1.526,4.458-.616,1.339-1.339,2.424-2.168,3.253-.831.831-1.781,1.245-2.851,1.245-1.553,0-2.891-.468-4.016-1.406-1.124-.936-2.076-2.168-2.851-3.695-.777-1.526-1.406-3.239-1.888-5.14-.482-1.9-.857-3.801-1.124-5.703-.269-1.9-.442-3.707-.522-5.421-.081-1.713-.121-3.132-.121-4.257,0-1.231.121-2.932.361-5.1.241-2.169.683-4.31,1.325-6.426.643-2.115,1.512-3.948,2.611-5.502,1.096-1.552,2.502-2.329,4.217-2.329ZM181.079,0c.803,0,1.606.188,2.41.562.803.375,1.512.871,2.128,1.486.615.616,1.11,1.325,1.486,2.129.374.803.563,1.606.563,2.41,0,.911-.175,1.795-.522,2.65-.349.857-.817,1.634-1.405,2.329-.59.696-1.285,1.245-2.088,1.646s-1.66.603-2.57.603c-1.982,0-3.615-.695-4.9-2.088-1.285-1.392-1.928-2.998-1.928-4.819,0-.91.187-1.779.563-2.61.374-.829.87-1.566,1.486-2.209.615-.643,1.338-1.151,2.169-1.526.829-.374,1.699-.562,2.61-.562Z"/>
    <path class="cls-1" d="M194.171,22.168v-3.815c0-.99.027-1.847.081-2.57.053-.723.121-1.365.201-1.928.081-.562.201-1.164.361-1.807.161-.749.482-1.606.964-2.57.482-.964,1.057-1.86,1.727-2.691.669-.829,1.418-1.526,2.249-2.088.83-.562,1.699-.843,2.61-.843s1.633.108,2.169.321c.534.214,1.258.696,2.168,1.446,1.017.536,1.848.937,2.49,1.205.643.268,1.217.389,1.726.361.508-.026,1.044-.173,1.606-.442.562-.267,1.272-.643,2.129-1.124,1.231-.749,2.382-1.298,3.453-1.647,1.07-.348,2.301-.522,3.695-.522,1.285,0,2.301.108,3.052.321.749.214,1.686.59,2.811,1.124,3.534,1.606,6.145,4.672,7.831,9.196,1.687,4.525,2.53,10.937,2.53,19.236,0,1.339-.054,2.891-.161,4.658-.108,1.767-.309,3.602-.603,5.502-.295,1.901-.723,3.762-1.285,5.582-.562,1.821-1.299,3.467-2.209,4.94-.911,1.474-2.022,2.651-3.333,3.534-1.313.884-2.879,1.326-4.699,1.326-1.071-.214-2.075-.615-3.012-1.205-.938-.588-1.7-1.498-2.289-2.731-.429-.803-.751-1.659-.964-2.57-.215-.91-.362-1.994-.442-3.253-.081-1.258-.094-2.717-.04-4.377.053-1.659.161-3.667.321-6.024.107-1.553.201-3.092.281-4.618.081-1.526.147-2.958.201-4.297.053-1.338.066-2.516.04-3.534-.028-1.016-.068-1.793-.121-2.329-.215-2.141-.643-3.908-1.285-5.301-.643-1.392-1.446-2.275-2.41-2.65-.59-.213-1.179-.08-1.767.402-.697.59-1.285,1.566-1.767,2.932-.482,1.365-.723,3.04-.723,5.02-.215,1.232-.335,2.879-.362,4.94-.028,2.062.093,4.377.362,6.947.267,2.945.401,5.582.401,7.911s-.148,4.391-.442,6.185c-.295,1.795-.75,3.361-1.365,4.699-.616,1.339-1.379,2.49-2.289,3.453-.911.911-1.821,1.606-2.731,2.088-.911.482-1.902.616-2.972.402-.911,0-1.674-.107-2.289-.321-.616-.214-1.273-.696-1.968-1.446-1.072-1.232-1.901-2.904-2.49-5.02-.59-2.115-1.071-4.992-1.446-8.634-.054-.803-.108-2.141-.161-4.016-.054-1.874-.08-3.936-.08-6.185s.013-4.551.04-6.907c.027-2.356.093-4.444.201-6.265Z"/>
    <path class="cls-1" d="M259.79,6.747c.695,0,1.338.148,1.928.442.588.295,1.124.442,1.606.442.267,0,.388-.121.361-.362-.028-.241-.014-.414.041-.522.107-.856.562-1.512,1.365-1.968.803-.454,1.606-.683,2.41-.683,1.231,0,2.37.55,3.413,1.646,1.044,1.098,2.008,2.518,2.891,4.257.884,1.741,1.673,3.708,2.37,5.903.695,2.196,1.285,4.418,1.767,6.666.482,2.249.843,4.418,1.084,6.506.241,2.088.361,3.855.361,5.301,0,3.052-.349,6.265-1.044,9.638-.696,3.373-1.847,6.493-3.453,9.357-1.606,2.865-3.682,5.221-6.225,7.068-2.544,1.848-5.662,2.771-9.357,2.771-1.714,0-3.507-.214-5.381-.643-1.875-.429-3.588-1.111-5.14-2.048-1.554-.936-2.839-2.141-3.855-3.615-1.018-1.472-1.526-3.225-1.526-5.261,0-.964.174-1.914.522-2.851.347-.936.816-1.753,1.405-2.45.589-.695,1.312-1.257,2.169-1.686.856-.428,1.794-.643,2.811-.643,1.124,0,2.141.536,3.052,1.606.91,1.072,1.794,2.236,2.651,3.494.856,1.259,1.753,2.423,2.69,3.494.936,1.072,1.994,1.606,3.173,1.606,1.231-.91,1.954-1.98,2.169-3.213.213-1.231.321-2.542.321-3.936,0-.428-.014-.99-.041-1.686-.028-.695-.054-1.418-.08-2.169-.028-.749-.081-1.459-.161-2.129-.081-.669-.201-1.137-.361-1.405-.108-.107-.189-.161-.241-.161-.215,0-.616.094-1.205.281-.59.188-1.259.389-2.008.603-.75.214-1.54.415-2.37.602-.831.188-1.62.281-2.369.281-2.088,0-4.056-.428-5.904-1.285-1.847-.856-3.441-2.008-4.779-3.454-1.339-1.446-2.397-3.119-3.172-5.02-.777-1.9-1.165-3.895-1.165-5.984,0-2.677.522-5.153,1.566-7.429,1.044-2.275,2.45-4.257,4.217-5.944,1.767-1.687,3.815-3.012,6.145-3.976,2.329-.964,4.779-1.446,7.349-1.446ZM259.228,29.718c.695,0,1.325-.388,1.887-1.165.562-.776,1.03-1.673,1.406-2.691.374-1.016.669-2.061.884-3.132.213-1.07.321-1.874.321-2.41,0-.321-.028-.709-.081-1.164-.054-.454-.148-.896-.281-1.325-.134-.428-.335-.789-.602-1.084-.269-.294-.617-.442-1.044-.442-.697,0-1.285.442-1.767,1.325-.482.884-.871,1.901-1.164,3.052-.295,1.152-.509,2.289-.643,3.413-.134,1.124-.201,1.955-.201,2.49,0,.215.013.496.04.843.026.349.08.696.161,1.044.08.349.201.643.361.883.161.241.402.361.723.361Z"/>
  </g>
  <g>
    <path class="cls-1" d="M63.073,98.972c0-1.177.133-2.462.402-3.855.267-1.392.629-2.797,1.084-4.217.454-1.418.977-2.771,1.566-4.056.589-1.285,1.205-2.436,1.847-3.453.588-.964,1.446-2.129,2.57-3.494,1.124-1.365,2.356-2.703,3.695-4.016,1.338-1.312,2.691-2.502,4.056-3.574,1.365-1.07,2.583-1.767,3.654-2.088.964-.321,1.954-.482,2.972-.482,1.392,0,2.918.068,4.578.201,1.659.134,3.132.496,4.418,1.084,1.659.697,3.105,1.821,4.337,3.373,1.231,1.553,2.316,3.32,3.253,5.301.936,1.982,1.713,4.123,2.329,6.425.615,2.302,1.097,4.578,1.446,6.827.348,2.249.603,4.417.763,6.506.161,2.088.241,3.883.241,5.382,0,1.606-.068,3.481-.201,5.622-.134,2.142-.509,4.164-1.124,6.064-.616,1.902-1.554,3.522-2.811,4.86-1.259,1.339-3.012,2.008-5.261,2.008-2.142,0-3.803-.562-4.98-1.686-1.179-1.124-2.048-2.517-2.61-4.177-.562-1.659-.911-3.44-1.044-5.342-.134-1.9-.228-3.627-.281-5.18-.215-.428-.509-.843-.883-1.245-.375-.402-.803-.603-1.285-.603-.59,0-1.072.255-1.446.763-.375.509-.683,1.111-.924,1.807-.241.697-.402,1.393-.482,2.088-.08.697-.121,1.259-.121,1.686,0,1.124.107,2.236.321,3.333.213,1.098.321,2.209.321,3.333,0,1.017-.174,2.008-.522,2.972-.349.964-.843,1.807-1.486,2.53-.643.723-1.405,1.299-2.289,1.727-.883.429-1.861.643-2.932.643-1.606,0-3.066-.402-4.377-1.205-1.313-.803-2.45-1.847-3.413-3.132-.964-1.285-1.795-2.757-2.49-4.418-.697-1.659-1.259-3.346-1.687-5.06-.429-1.713-.737-3.373-.924-4.98-.188-1.606-.281-3.025-.281-4.257v-4.016ZM86.847,98.732c.428,0,.776-.374,1.044-1.124.267-.749.482-1.592.643-2.53.161-.936.267-1.847.321-2.731.053-.883.08-1.458.08-1.726s-.04-.884-.12-1.848c-.08-.964-.201-1.968-.362-3.012-.161-1.044-.389-1.98-.683-2.811-.295-.83-.657-1.245-1.084-1.245-.375,0-.696.321-.964.964-.269.643-.469,1.379-.602,2.209-.134.831-.228,1.634-.281,2.41-.054.777-.08,1.299-.08,1.566,0,1.446.133,3.092.402,4.939.267,1.848.695,3.441,1.285,4.779l.402.161Z"/>
    <path class="cls-1" d="M139.696,72.226c1.017,0,2.195.094,3.534.281,1.338.188,2.61.536,3.815,1.044,1.205.509,2.221,1.192,3.052,2.048.83.857,1.245,1.955,1.245,3.293,0,1.393-.481,2.932-1.445,4.618-.964,1.687-2.183,3.427-3.655,5.221-1.473,1.795-3.066,3.602-4.779,5.422-1.714,1.821-3.307,3.588-4.779,5.301-1.474,1.714-2.691,3.307-3.655,4.779-.964,1.473-1.446,2.771-1.446,3.895,0,.482.107.857.321,1.124.213.964.816,1.566,1.807,1.807.99.241,1.914.362,2.771.362,1.124,0,2.249-.093,3.373-.281,1.124-.187,2.249-.401,3.373-.643,1.124-.241,2.249-.454,3.373-.643,1.124-.187,2.249-.281,3.373-.281.643,0,1.177.269,1.606.803.427.536.776,1.179,1.044,1.928.267.751.454,1.54.562,2.37.106.831.16,1.54.16,2.128,0,1.982-.67,3.588-2.008,4.819-1.339,1.233-2.959,2.182-4.859,2.851-1.901.67-3.869,1.124-5.903,1.365-2.036.241-3.775.362-5.221.362-1.178,0-2.638-.041-4.377-.121-1.741-.081-3.574-.254-5.502-.522-1.927-.268-3.843-.643-5.743-1.124-1.901-.482-3.614-1.137-5.14-1.968-1.526-.829-2.758-1.847-3.695-3.052-.937-1.205-1.405-2.637-1.405-4.297,0-2.034.468-3.976,1.405-5.823.936-1.848,2.101-3.615,3.494-5.301,1.392-1.687,2.891-3.279,4.498-4.779,1.606-1.498,3.105-2.918,4.498-4.257,1.392-1.338,2.556-2.583,3.494-3.735.936-1.15,1.405-2.208,1.405-3.172,0-.75-.188-1.165-.562-1.245-.375-.081-.857-.121-1.446-.121-.911,0-1.807.108-2.691.321-.884.215-1.755.469-2.61.763-.857.295-1.727.549-2.61.763-.883.214-1.807.321-2.771.321-1.66,0-3.106-.548-4.337-1.647-1.232-1.096-1.847-2.502-1.847-4.217,0-1.552.615-2.904,1.847-4.056,1.231-1.151,2.797-2.128,4.699-2.932,1.9-.803,4.028-1.446,6.386-1.928,2.355-.482,4.658-.856,6.907-1.124,2.249-.267,4.31-.454,6.185-.563,1.874-.107,3.293-.161,4.257-.161Z"/>
    <path class="cls-1" d="M185.557,72.226c1.017,0,2.195.094,3.534.281,1.338.188,2.611.536,3.815,1.044,1.205.509,2.221,1.192,3.052,2.048.83.857,1.245,1.955,1.245,3.293,0,1.393-.482,2.932-1.446,4.618-.964,1.687-2.182,3.427-3.655,5.221-1.473,1.795-3.066,3.602-4.779,5.422-1.714,1.821-3.307,3.588-4.779,5.301-1.473,1.714-2.691,3.307-3.655,4.779-.964,1.473-1.446,2.771-1.446,3.895,0,.482.107.857.321,1.124.213.964.816,1.566,1.807,1.807.99.241,1.914.362,2.771.362,1.124,0,2.249-.093,3.373-.281,1.124-.187,2.249-.401,3.373-.643,1.124-.241,2.249-.454,3.373-.643,1.124-.187,2.249-.281,3.373-.281.643,0,1.178.269,1.606.803.428.536.776,1.179,1.044,1.928.267.751.454,1.54.562,2.37.107.831.161,1.54.161,2.128,0,1.982-.67,3.588-2.008,4.819-1.339,1.233-2.96,2.182-4.859,2.851-1.902.67-3.869,1.124-5.904,1.365-2.036.241-3.775.362-5.22.362-1.179,0-2.638-.041-4.378-.121-1.74-.081-3.574-.254-5.502-.522-1.928-.268-3.843-.643-5.742-1.124-1.902-.482-3.615-1.137-5.14-1.968-1.526-.829-2.758-1.847-3.695-3.052-.938-1.205-1.406-2.637-1.406-4.297,0-2.034.468-3.976,1.406-5.823.936-1.848,2.101-3.615,3.494-5.301,1.392-1.687,2.891-3.279,4.498-4.779,1.606-1.498,3.105-2.918,4.498-4.257,1.392-1.338,2.557-2.583,3.494-3.735.936-1.15,1.406-2.208,1.406-3.172,0-.75-.188-1.165-.563-1.245-.375-.081-.857-.121-1.446-.121-.911,0-1.807.108-2.69.321-.884.215-1.754.469-2.611.763-.857.295-1.726.549-2.61.763-.883.214-1.807.321-2.771.321-1.66,0-3.106-.548-4.337-1.647-1.233-1.096-1.848-2.502-1.848-4.217,0-1.552.615-2.904,1.848-4.056,1.231-1.151,2.797-2.128,4.699-2.932,1.9-.803,4.028-1.446,6.385-1.928,2.356-.482,4.659-.856,6.907-1.124,2.249-.267,4.309-.454,6.184-.563,1.874-.107,3.293-.161,4.257-.161Z"/>
    <path class="cls-1" d="M219.773,69.977c2.677,0,5.112.201,7.309.603,2.195.402,4.069.964,5.622,1.687,1.552.723,2.771,1.58,3.655,2.57.883.991,1.325,2.075,1.325,3.253,0,.964-.295,1.875-.884,2.731-.59.857-1.379,1.594-2.369,2.208-.991.617-2.169,1.098-3.534,1.446-1.366.349-2.851.522-4.458.522-1.821,0-3.562-.161-5.22-.482-1.66-.321-3.026-.428-4.096-.321l-.401.321c-.161.321-.241.723-.241,1.205-.054.269-.08.509-.08.723,0,1.875.201,3.253.602,4.136.402.884,1.137,1.54,2.209,1.968h3.133c4.55,0,7.803.469,9.758,1.405,1.954.938,2.932,2.478,2.932,4.618,0,1.554-.429,2.704-1.285,3.453-.857.751-1.901,1.273-3.132,1.566-1.233.295-2.53.429-3.895.402-1.366-.027-2.558-.041-3.574-.041h-2.209c-.723,0-1.366.094-1.928.281-.563.188-1.018.536-1.366,1.044-.349.509-.522,1.299-.522,2.369,0,1.393.281,2.584.843,3.574.562.992,1.298,1.486,2.209,1.486.482,0,1.057-.133,1.727-.402.669-.267,1.352-.534,2.048-.803.91-.374,1.78-.683,2.61-.923.829-.241,1.727-.362,2.691-.362,1.713,0,3.333.335,4.859,1.004,1.526.671,2.53,1.46,3.012,2.37.268.482.402,1.004.402,1.566v1.566c0,.375-.028.696-.081.964-.054.268-.188.616-.401,1.044-.643,1.285-1.606,2.45-2.891,3.494-1.285,1.044-2.811,1.941-4.578,2.691-1.767.75-3.722,1.339-5.863,1.767-2.142.428-4.391.642-6.747.642-2.678,0-4.939-.321-6.787-.963-1.847-.643-3.387-1.739-4.618-3.293-1.232-1.552-2.196-3.641-2.891-6.265-.696-2.623-1.232-5.944-1.606-9.96-.214-2.41-.375-4.886-.482-7.429-.108-2.543-.161-4.725-.161-6.546,0-4.23.348-7.804,1.044-10.723.695-2.918,1.807-5.274,3.333-7.068,1.526-1.794,3.52-3.092,5.984-3.895,2.462-.803,5.462-1.205,8.996-1.205Z"/>
    <path class="cls-1" d="M240.976,96.804v-5.261c0-2.008.093-4.042.281-6.104.187-2.06.534-4.028,1.044-5.903.508-1.874,1.245-3.426,2.209-4.658.749-.749,1.592-1.231,2.53-1.446.936-.213,1.86-.321,2.771-.321.643,0,1.271.161,1.888.482.615.321,1.205.683,1.767,1.084.562.401,1.11.777,1.646,1.124.534.349,1.016.522,1.446.522.374,0,.883-.187,1.526-.563.643-.374,1.392-.789,2.249-1.245.856-.454,1.807-.87,2.851-1.245,1.044-.374,2.128-.563,3.253-.563,2.249,0,4.39.402,6.426,1.205,2.034.803,3.841,1.928,5.422,3.373,1.578,1.446,2.837,3.16,3.775,5.14.936,1.982,1.406,4.177,1.406,6.586,0,1.767-.442,3.401-1.325,4.899-.884,1.5-1.861,2.851-2.932,4.056-1.071,1.205-2.048,2.303-2.932,3.293-.883.991-1.325,1.887-1.325,2.69,0,.697.428,1.393,1.285,2.088.856.697,1.794,1.58,2.811,2.651,1.017,1.071,1.954,2.397,2.811,3.975.856,1.58,1.285,3.629,1.285,6.145,0,1.767-.349,3.401-1.044,4.899-.697,1.5-1.66,2.811-2.891,3.935-1.232,1.124-2.664,1.994-4.297,2.611-1.634.615-3.387.923-5.261.923-.803,0-1.606-.134-2.41-.401-.803-.269-1.526-.657-2.168-1.164-.643-.509-1.165-1.138-1.566-1.888-.402-.751-.603-1.606-.603-2.57,0-2.141.241-4.269.723-6.386.482-2.114.723-4.243.723-6.385,0-.803-.04-1.579-.121-2.329-.08-.749-.255-1.418-.522-2.008-.269-.588-.656-1.07-1.164-1.446-.509-.374-1.219-.563-2.128-.563-1.018.054-1.7.59-2.048,1.606-.349,1.018-.522,2.196-.522,3.534s.08,2.678.241,4.016c.161,1.339.241,2.41.241,3.213,0,1.339-.215,2.758-.643,4.257-.429,1.499-1.058,2.878-1.888,4.136-.831,1.258-1.835,2.302-3.012,3.133-1.179.829-2.517,1.245-4.016,1.245-1.393,0-2.558-.429-3.494-1.285-.938-.857-1.7-1.955-2.289-3.293-.589-1.338-1.017-2.851-1.285-4.538-.268-1.687-.455-3.36-.562-5.02-.108-1.659-.161-3.213-.161-4.658v-15.582ZM264.349,96.804c.803-.428,1.446-.964,1.928-1.606.482-.643.843-1.325,1.084-2.048.241-.723.388-1.472.442-2.249.053-.775.08-1.512.08-2.208v-1.124c0-.482-.04-.95-.121-1.406-.08-.454-.188-.856-.321-1.205-.134-.347-.335-.522-.602-.522-.803.161-1.433.603-1.888,1.325-.455.723-.803,1.54-1.044,2.45-.241.911-.401,1.821-.482,2.731-.08.911-.12,1.686-.12,2.329,0,.751.04,1.393.12,1.928.081.536.388,1.072.924,1.606Z"/>
  </g>
</svg>