<?xml version="1.0" encoding="UTF-8"?>
<svg id="Capa_1" data-name="Capa 1" xmlns="http://www.w3.org/2000/svg" viewBox="0 0 800 800">
  <defs>
    <style>
      .cls-1 {
        fill: #000;
      }

      .cls-1, .cls-2 {
        stroke-width: 0px;
      }

      .cls-2 {
        fill: #fff;
      }
    </style>
  </defs>
  <ellipse class="cls-1" cx="403.27" cy="396.93" rx="391.73" ry="351.07"/>
  <g>
    <circle class="cls-2" cx="400" cy="400" r="52.308"/>
    <path class="cls-2" d="M400,0C179.087,0,0,179.087,0,400s179.087,400,400,400,400-179.087,400-400S620.913,0,400,0ZM247.486,99.483c45.787-23.277,97.618-36.404,152.514-36.404,3.224,0,6.419.043,9.614.13,5.306.145,8.949,13.33,8.154,29.277l-4.077,82.076c-.795,15.947-4.178,28.713-7.561,28.612-2.039-.058-4.077-.087-6.13-.087-28.872,0-56.298,6.217-81.006,17.378-14.559,6.578-31.98,2.66-40.106-11.089l-41.869-70.799c-8.125-13.749-3.773-31.85,10.467-39.093ZM231.12,250.045l-61.85-54.101c-12.029-10.511-13.272-28.829-1.72-39.845.275-.26.535-.506.824-.766,11.595-10.988,29.768-8.747,39.571,3.846l50.515,64.828c9.817,12.593,12.101,27.311,5.653,33.455-6.463,6.173-20.964,3.094-32.992-7.417ZM258.46,400c0-78.173,63.368-141.54,141.54-141.54s141.54,63.368,141.54,141.54-63.368,141.54-141.54,141.54-141.54-63.368-141.54-141.54ZM551.849,700.849c-45.628,23.074-97.228,36.072-151.849,36.072-3.585,0-7.157-.058-10.713-.159-5.913-.188-10.005-13.431-9.137-29.378l4.482-82.062c.882-15.947,4.655-28.641,8.472-28.511,2.284.072,4.583.116,6.896.116,26.515,0,51.787-5.234,74.876-14.718,14.776-6.072,32.891-2.082,41.595,11.306l44.833,68.963c8.704,13.373,4.8,31.156-9.455,38.371ZM630.629,645.621c-11.075,10.41-28.988,7.966-39.079-4.41l-51.903-63.715c-10.091-12.376-12.665-26.718-6.289-32.602,6.39-5.884,20.862-2.588,32.877,7.937l61.879,54.129c12.029,10.511,13.605,28.25,2.516,38.66Z"/>
  </g>
</svg>